<svg width="18" height="19" viewBox="0 0 18 19" fill="none" xmlns="http://www.w3.org/2000/svg">
<path d="M0.817 11.256L0 10.677L4.25 3.85L7.135 7.235L10.942 1.023L13.827 5.369L17.183 0L17.961 0.598L13.838 7.198L10.978 2.877L7.275 8.917L4.385 5.527L0.817 11.256ZM12.116 16C12.918 16 13.596 15.723 14.15 15.169C14.704 14.615 14.9807 13.9367 14.98 13.134C14.9793 12.3313 14.7027 11.6533 14.15 11.1C13.5973 10.5467 12.919 10.27 12.115 10.27C11.311 10.27 10.633 10.5467 10.081 11.1C9.529 11.6533 9.252 12.3317 9.25 13.135C9.248 13.9383 9.525 14.6163 10.081 15.169C10.637 15.7217 11.3153 15.9987 12.116 16ZM17.273 19L14.458 16.185C14.1333 16.4437 13.7733 16.6443 13.378 16.787C12.9827 16.9297 12.5617 17.0007 12.115 17C11.0417 17 10.1293 16.6247 9.378 15.874C8.626 15.1227 8.25 14.2107 8.25 13.138C8.25 12.0653 8.62567 11.1523 9.377 10.399C10.1283 9.64567 11.04 9.269 12.112 9.269C13.184 9.269 14.097 9.645 14.851 10.397C15.605 11.149 15.9817 12.0613 15.981 13.134C15.981 13.5807 15.9097 14.005 15.767 14.407C15.625 14.8083 15.4247 15.1717 15.166 15.497L17.962 18.312L17.273 19Z" fill="white"/>
</svg>
